<?xml version="1.0" encoding="UTF-8"?>
<svg id="Layer_2" data-name="Layer 2" xmlns="http://www.w3.org/2000/svg" viewBox="0 0 398.92 522.95">
  <defs>
    <style>
      .cls-1 {
        stroke-width: 0px;
      }
    </style>
  </defs>
  <g id="katman_1" data-name="katman 1">
    <g id="GF1bvj">
      <g>
        <path class="cls-1" d="m346.5,455.56c-1.57,1.51-2.17,3.43-3.03,5.2-.83,1.72-1.57,3.49-2.59,5.1-4.87,7.7-14.82,7.98-20.13.59-.84-1.17-1.49-2.48-2.26-3.71-.59-.96-1.05-2.06-2.41-2.44-1.73,4.17-3.45,8.32-5.19,12.47-.83,1.97-1.73,3.91-3.06,5.62-2.16,2.78-4.63,3.45-7.88,2-5.48-2.44-9.31-6.56-11.85-11.92-3.08-6.49-4.42-13.47-5.61-20.48-.16-.95-.36-1.9-.66-3.47-1.62,3.04-3.05,5.53-4.31,8.1-5.55,11.32-12.18,21.89-21.22,30.81-1.83,1.8-1.85,2.91-.33,5.3,2.78,4.38,5.83,8.61,7.66,13.52,1.41,3.77,2.04,7.69,1.87,11.69-.26,6.33-4.45,9.82-10.7,8.83-5.96-.94-10.53-4.1-13.09-9.64-2.24-4.85-4.3-9.79-6.24-14.77-1.46-3.72-3.54-6.6-7.37-8.27-3.64-1.58-3.78-4.05-.71-6.65,3.52-2.99,4.4-6.99,2.49-11.15-.76-1.66-2.29-1.58-3.72-1.68-5.7-.41-10.52-2.56-14.02-7.19-2.86-3.78-4.08-8.17-4.3-12.84-.43-9.57-.14-19.11,2.06-28.48.38-1.63-.08-2.14-1.64-2.33-5.12-.62-9.33,2.75-9.59,8.12-.23,4.8-.1,9.63-.05,14.44.1,9.57.05,19.11-2.38,28.46-1,3.86-2.38,7.57-4.25,11.1-4.48,8.45-13.47,9.63-20.08,2.72-6.22-6.49-8.82-14.51-10.04-23.14-.51-3.63-.96-7.26-1.46-11.02-1.45.43-2.13,1.56-2.86,2.59-3.27,4.6-7.65,7.06-13.34,6.4-5.59-.65-9.54-3.94-11.35-9.14-4.19-12.08-2.44-23.46,4.9-33.94,1.06-1.52,2.56-2.64,4.3-3.34,1.74-.7,3.45-.73,4.83.83,1.39,1.56.61,3.02-.34,4.36-4.62,6.55-7.31,13.74-7.11,21.83.06,2.67.4,5.33.7,7.98.23,2,1.27,3.39,3.33,3.89,1.96.48,3.19-.58,4.3-1.93,5.06-6.13,7.92-13.35,10.38-20.78.89-2.68,1.79-5.36,2.75-8.02.59-1.62,1.3-3.13,3.48-3.04,2.26.1,3.99.95,4.9,3.11.67,1.59.67,3.28.67,4.96-.01,9.32-.29,18.65.11,27.97.36,8.27,3.48,15.75,7.1,23.03.66,1.33,1.81,2.07,3.35,1.97,1.54-.11,2.21-1.24,2.66-2.51,3.29-9.25,6-18.61,5.97-28.56-.02-6.34.24-12.68.64-19.01.36-5.8-.59-7.23-5.99-9.26-6.42-2.41-10.18-7.14-11.69-13.66-1.64-7.1,3.33-13.3,10.07-12.75,3.16.26,5.6,1.93,7.48,4.39,2.57,3.37,4.31,7.19,5.88,11.1.31.78.59,1.57.94,2.34,1.09,2.39,2.29,2.78,4.49,1.23,4.19-2.94,8.29-6,12.47-8.96,1.18-.83,2.45-1.59,3.77-2.15,1.93-.81,3.77-.34,5.33,1.01,1.44,1.23,1.28,2.81.83,4.44-2.17,7.96-4.5,15.88-5.37,24.13-.87,8.21-1.82,16.43.22,24.61.28,1.11.6,2.22,1.06,3.26,1.09,2.47,2.84,3.4,5.51,3.07,2.51-.31,3.93-1.61,4.33-4.28.26-1.73.28-3.5.31-5.26.41-22.07,5.06-43.17,14.38-63.2,2.3-4.94,4.9-9.68,8.83-13.55,7.18-7.07,15.97-4.69,18.79,5.03,2.15,7.42,1.45,14.84.31,22.27-3.27,21.2-12.03,39.83-26.65,55.54-5.61,6.03-5.81,12.8-4.04,20.09.63,2.6,2.81,3.12,5.18,1.21,3.34-2.69,6.22-5.88,8.97-9.16,9.09-10.86,15.08-23.46,20.27-36.49,3.59-9.02,6.42-18.3,9.51-27.49.09-.27.1-.56.18-.99-2.78.34-4.63,2.11-6.71,3.43-2.33,1.48-3.98,1.41-5.35-.14-1.79-2.01-1.6-3.99.78-5.61,2.71-1.85,5.48-3.72,8.6-4.75,4.41-1.46,7.12-4.18,7.94-8.83.3-1.71,1.01-3.37,1.71-4.97.98-2.25,2.5-3,4.53-2.47,2.48.64,3.75,2.19,3.71,4.54-.03,2.18-1.14,4.1-1.51,6.21-.28,1.63.1,2.31,1.69,2.76,8.23,2.34,17.4-2.49,20.06-10.61.41-1.25.4-3.02,2.06-3.28,1.79-.28,2.92,1.14,3.91,2.4,1.67,2.11,1.74,4.51.88,6.95-2.42,6.84-7.67,9.95-14.52,10.94-4.25.61-8.51.82-12.8.8-3.03-.01-4.4,1.08-5.04,3.95-2.84,12.64-4.71,25.38-3.86,38.4.56,8.65,2.85,16.84,6.14,24.79.39.94.86,1.85,2.08,1.84,1.39,0,1.96-1.03,2.44-2.1,3.01-6.64,5.06-13.58,6.67-20.67,1.75-7.74,3.59-15.47,5.39-23.2.45-1.92.9-3.83,3.41-3.9,2.58-.07,4.87,1.56,5.57,3.96.5,1.71.37,3.49.41,5.24.09,4.66-.38,9.31-.16,13.98.27,5.64,1.55,11.02,3.58,16.26.4,1.04.89,1.96,2.16,2.11,1.42.17,2.38-.56,2.99-1.7,5.12-9.63,9.68-19.39,9.77-30.67.05-7.02,2.85-13.07,7.93-17.97,3.67-3.54,8.07-4.42,12.19-2.55,3.9,1.78,5.96,5.76,5.7,10.84-.32,6.27-3.4,10.96-8.24,14.67-.6.46-1.25.88-1.89,1.29-4.8,3.11-5.35,4.3-4.19,9.84.98,4.7,3.22,8.74,6.82,11.93,3.13,2.77,5.77,2.59,8.54-.5,4.06-4.53,5.09-10.13,5.51-15.92.13-1.76.36-3.5.8-5.2.52-2,1.77-2.89,3.9-2.61,3.18.42,5.17,2.42,5.53,6.03.62,6.19-1.23,11.9-3.4,17.59-6.05,15.83-24.14,12.41-30.72,2.66-1.27-1.89-2.45-3.84-3.7-5.82Zm-83.44-75.85c-3.19,2.04-4.88,4.86-6.49,7.68-6.17,10.85-10.08,22.56-13.09,34.6-1.72,6.9-3.16,13.86-2.86,21.04.05,1.15,0,2.36.8,3.61,15-19.84,23.13-41.59,21.64-66.94Zm-7.67,126.78c-.2-4.62-1.38-8.75-3.64-12.57-.94-1.6-2.13-2.99-3.86-3.79-1.28-.59-2.53-.54-3.65.38-1.15.95-1.31,2.15-.79,3.51,1.73,4.48,3.42,8.98,5.2,13.44.39.97,1.03,1.88,1.71,2.69.88,1.05,2.03,2.45,3.3,2.17,1.4-.31,1.29-2.21,1.59-3.51.19-.8.11-1.67.15-2.32Zm-67.05-93.27c-1.01-3.15-1.94-6.1-2.9-9.04-.29-.9-.79-1.72-1.85-1.77-1.15-.05-1.73.75-2.15,1.72-1.94,4.44,1.36,9.06,6.91,9.09Zm168.69,6.05c-2.33,1.28-5.22,7.03-4.81,9.56.12.76.28,1.41,1.29.82,4.23-2.47,5.89-7.55,3.52-10.38Z"/>
        <path class="cls-1" d="m284.07,188.86c-.69-1.67-.34-3.27-.25-4.86.08-1.5.62-2.97.27-4.7-4.25,6.21-8.47,12.24-12.56,18.35-4.46,6.67-8.78,13.43-14.34,19.28-2.38,2.5-5.01,4.71-7.74,6.8-1,.76-2.03,1.62-3.82,1.37,20-17.19,26.82-40.18,30.18-65.36-1.66,1.23-2.95,2.13-4.18,3.11-9.75,7.82-20.9,9.5-32.89,7.53-1.43-.24-2.89-.37-4.29-.75-2.82-.76-5.31-.48-7.13,1.97-.29-.11-.51-.13-.54-.22-2.58-7.99-7.56-14.81-10.96-22.39-.84-1.88-1.51-3.83-2.27-5.75-.68-1.72-1.66-3.17-3.74-3.21-2.19-.05-3.6,1.19-4.34,3.13-1.36,3.57-2.79,7.12-3.88,10.77-3.05,10.2-10.22,15.75-20.16,18.31-7.08,1.82-14.21,1.95-21.36.5-5.17-1.05-8.22,1.46-8.03,6.78.04,1.23.25,2.46.76,3.57,5.68,12.21,11.76,24.21,20.57,34.53,6.53,7.64,14.34,13.71,23.73,17.55,3.21,1.31,6.58,1.93,10,2.37,1.44.18,2.88.39,4.1,1.63-1.73,1.47-3.64,1.24-5.57.88-10.54-1.97-19.59-7.1-28.1-13.36-2.08-1.53-4.12-3.1-6.48-4.87,1.29,8.69,2.58,17.06-5.08,24.02.4-4.22.5-7.93.21-11.65-.9-11.34-5.07-21.64-10-31.7-1.98-4.05-4.17-7.99-6.19-12.01-1-1.99-2.68-3.82-4.62-3.55-2.05.29-2.82,2.74-3.19,4.85-.38,2.21-.12,4.43-.03,6.63.23,5.24-.49,10.36-1.79,15.42-.3,1.18-.69,2.29-2.05,3.03-.5-2.8-.61-5.44-.53-8.09.1-3.21.14-6.41-.23-9.61-.19-1.65-.88-1.96-2.25-1.02-.31.21-.59.49-.83.78-7.7,9.29-15.88,18.2-22.63,28.25-2.81,4.18-5.79,8.28-6.52,13.48-.46,3.29-.32,6.56.27,9.81.31,1.68,1.04,3.19,2.91,4.06,1.46-3.12-.3-6.56,1.19-9.86,3.19,3.53,5.76,7.27,8.12,11.16.17.29.57.62.18.99-.41.4-.92.59-1.47.33-.74-.36-1.45-.78-2.29-1.24-.54,1.08-.13,2.05-.12,3,.03,2.23-.61,2.76-2.75,2.28-5.2-1.17-8.9-5.79-9.6-11.82-.29-2.5.39-5.26-.87-7.45-1.53-2.67-.58-4.42.92-6.55,7.08-10.06,13.91-20.28,21.09-30.27,3.92-5.46,9.08-9.69,13.44-14.69,4.26-4.9,8.16-10.1,12.53-14.91,2.14-2.35,2.09-5.38.34-7.57-2.14-2.68-5.24-3.47-8.17-1.97-.94.48-1.8,1.15-2.6,1.85-6.97,6.08-13.88,12.23-20.05,19.14-1.73,1.94-3.62,3.72-5.66,5.34-3.2,2.54-6.59,2.88-10.26,1.05-4.72-2.35-5.55-1.87-6.11,3.34-.25,2.35-.38,4.73-1.03,7.01-.17.59-.18,1.57-1.09,1.49-.84-.07-.94-.91-.91-1.62.52-10.18-1.08-20.51,2.06-30.52.79-2.52.21-5.05-.7-7.41-1.52-3.94-1.61-7.7.5-11.47.51-.91.74-2.01.9-3.06.58-3.78,2.58-6.63,5.58-8.87,2.27-1.7,4.79-2.99,7.32-4.26,2.21-1.11,4.48-.78,6.72-.21,3.08.79,6.19.87,9.33.73,1.43-.07,2.7-.52,3.64-1.65,1.79-2.16,1.09-4.36-1.61-4.96-12.1-2.71-23.84-1.25-35.28,3.23-2.7,1.06-4.47,3.08-5.68,5.69-2.07,4.45-3.83,9.01-4.79,13.82-.86,4.33-2.51,8.31-4.72,12.1-1.96,3.36-3.85,6.77-5.78,10.15-.36.63-.67,1.65-1.55,1.24-.83-.39-.43-1.3-.17-2.04,4.07-11.35,8.14-22.71,12.2-34.07.28-.79.55-1.6.68-2.42.47-2.91-1.2-5.14-4.1-5.57-1.41-.21-2.51.2-2.69,1.74-.57,4.94-2.43,9.42-4.55,13.85-.91,1.9-.95,3.91.71,5.52.86.83.6,1.35-.14,2.02-1.7,1.54-3.29,3.21-5.04,4.68-4.97,4.15-7.17,9.55-7.39,15.9-.42,11.84-1.09,23.67-3.28,35.34-2.28,12.17-4.53,24.46-10.62,35.39-3.7,6.65-5.79,13.54-6.68,20.97-.43,3.56-1.33,7.04-2.24,10.52-3.28,12.54-8.38,24.39-13.84,36.1-6.45,13.84-12.95,27.66-19.43,41.49-.44.94-1.01,2.43-2.11,1.84-1.15-.62-.36-2.06.11-3.09,7.49-16.48,14.41-33.2,21.01-50.05,3.34-8.52,7.08-16.91,9.51-25.77,1.72-6.28,2.19-12.79,3.14-19.21.42-2.8.83-5.64,2.38-8.07,6.71-10.5,10.06-22.17,12.34-34.26,2.15-11.36,2.78-22.89,4.09-34.35.43-3.72,1.06-7.4,1.69-11.09,1.04-6.12,4.16-10.89,8.85-14.78,2.98-2.48,3-2.96.72-5.93-3.38-4.39-3.91-9.25-1.8-14.26,2.14-5.08,6.16-7.89,11.69-8.25,3.62-.24,6.43-1.33,7.95-5.03,1.07-2.58,3.49-3.86,6.22-4.12,9.43-.9,17.65-4.48,24.92-10.55,2.62-2.19,5.67-3.88,8.6-5.67,2.3-1.4,3.96-1.02,5.47,1.27,1.17,1.79,2.65,2.34,4.68,1.99,2.61-.44,5.23-.75,8.14-1.15-3.17-3.14-7.33-4.74-9.44-8.55.58-.5,1.13-.35,1.62-.25,6.42,1.38,11.76,4.58,15.96,9.63.47.56,1.16,1.27.78,2.01-.41.81-1.34.49-2.08.35-.96-.18-1.41.23-1.49,1.19-.14,1.67-.38,3.34-.47,5.02-.09,1.59,1.14,1.64,2.21,1.59,2.29-.1,4.57-.37,6.86-.49,13.27-.69,26.4.65,39.46,2.86,4.81.82,9.57,2.09,14.5,2,2.53-.05,5-.44,7.57-1.28-.6-.81-1.44-.96-2.14-1.26-10.37-4.49-20.81-8.83-31.11-13.47-6.32-2.85-12.66-5.79-17.69-10.82-7.14-7.14-9.68-15.87-9.01-25.73.07-1.11.46-2.05,1.54-2.84,1.19,1.4,2.36,2.78,3.55,4.15,5.38,6.23,11.44,11.66,18.48,15.98.58.36,1.86.47,1.14,1.75-.77,1.36-1.57.34-2.28-.03-5.06-2.67-10.1-5.38-15.58-8.31,1.16,4.33,3.07,7.8,5.53,10.98,2.28,2.94,5.16,5.19,8.41,6.98,12.93,7.11,26.37,13.16,39.71,19.43,3.44,1.62,7.05,2,10.74,1.08,12.73-3.15,25.65-3.9,38.69-2.91,8.24.63,16.51-.17,24.74.45,6.95.52,11.37,4.71,14.47,10.58.59,1.11.48,1.65-.18,3.8-3.9-1.76-6.73-5.25-11.29-6.89,1.81,4.4,3.45,8.38,5.09,12.36.43,1.06.93,2.1,1.26,3.19.35,1.18.12,2.24-1.37,2.28-1.46.03-1.29.91-1.2,1.86.28,3.2.57,6.39.78,9.59.04.68.57,1.65-.38,2.04-.84.35-1.35-.46-1.89-.99-.21-.2-.46-.36-1.11-.86,0,3.37-.12,6.38.04,9.38.12,2.19.18,4.37-.95,6.24-3.04,5.03-4.61,10.61-6.35,16.14-.51,1.62-1.12,3.22-3.3,3.62Zm-140.97-36.78c1.31,7.14,4.39,12.99,11.81,15.4,9.59,3.12,19.25,2.9,28.9.31,1.99-.53,3.83-1.52,5.56-2.67,5.53-3.67,8.51-9.02,10.22-15.25.93-3.38,1.64-6.86,3.55-9.88,2.02-3.2,5.92-4.52,9.4-3.22,2.6.98,3.8,3.22,4.68,5.63,2.12,5.82,4.52,11.51,7.89,16.75,2.42,3.77,5.76,6.4,10.18,7.23,8.92,1.67,17.77,1.5,26.46-1.49,6.61-2.27,10.9-6.54,12.99-13.35,2.69-8.74,4.07-17.89,8.12-26.22,1.18-2.42-.02-4.33-2.67-5-1.03-.26-2.11-.36-3.18-.41-6.64-.29-13.29-.47-19.93-.84-8.48-.47-16.74.47-24.92,2.8-15.04,4.28-30.33,4.98-45.57,1.47-11.26-2.6-22.56-2.66-33.95-2.16-3.84.17-6.97,1.65-8.95,5.07-4.21,7.26-4.66,14.81-1.56,22.59-.43-3.59-.71-7.19-.52-10.81.34-6.43,3.99-11,10.17-12.53,9.29-2.3,18.69-2.94,28.2-1.58,4.4.63,8.7,1.69,12.89,3.13,4.52,1.55,6.24,3.95,6.27,8.68.02,2.21,0,4.44-.16,6.64-.89,11.63-6.58,19.85-17.63,23.93-9.35,3.45-18.5,1.83-27.46-1.78-2.93-1.18-5.19-3.17-7.01-5.71-1.51-2.1-2.58-4.45-3.78-6.72Zm-24.3,28.63c1.55-2.97,1.81-5.33,1.21-8.89-.33-1.96-.66-3.92-.9-5.89-.09-.73-.22-1.68.58-2.06.86-.41,1.4.43,1.86.98,1.13,1.35,2.12,2.81,3.27,4.13.67.77,1.42,2.01,2.53,1.54,1.01-.43.94-1.81,1.02-2.87.02-.3.03-.61,0-.92-.52-5.65-2.61-10.63-6.34-14.92-.31-.36-.56-.96-1.3-.67-.09,1.77.68,3.53.22,5.5-3.16-1.66-5.05-4.1-5.98-7.33-.55-1.92-.79-3.89-.92-5.88-.04-.72.06-1.45-1.05-1.7-4.48-1.03-7.63,1.92-6.77,6.47.18.97.41,1.94.68,2.9,1.79,6.23,2.03,12.48.42,18.78-1.36,5.32-2.68,10.66-3.97,16-.78,3.24,1.55,5.32,4.77,4.34,2.19-.66,3.19-2.13,3.3-5.17.27-7.56.46-15.12.7-22.68.02-.76.07-1.53.24-2.26.14-.59.53-1.19,1.16-1.29.65-.09.78.64,1.05,1.06,2.15,3.41,2.68,7.26,3.02,11.16.27,3.1.43,6.21,1.17,9.67Zm3.04-59.01c-6.59-.2-12.31-.15-18.02.36-4.87.44-9.68,1.28-14.35,2.76-3.73,1.18-5.65,3.55-5.59,6.65.06,2.96.69,3.35,3.33,2.07,10.37-5.01,21.22-7.56,32.79-6.48,4.65.43,9.16,1.53,13.65,2.76,2.98.81,5.53-1.12,6.18-4.46.4-2.08-1.1-3.32-4.44-3.65-.6-.06-1.22-.01-1.83-.01-4.2,0-8.39,0-11.72,0Zm-20.19,26.46c-2.97,6.41-4.97,12.78-2.55,19.76.56,1.6.49,3.3.17,4.98-.67,3.51-1.38,7.02-1.95,10.55-.16.97-.34,2.48.92,2.67,1.25.19,1.53-1.21,1.77-2.27.96-4.24,2-8.46,2.9-12.71,1.42-6.77,1.99-13.58.36-20.41-.23-.95-.32-1.97-1.61-2.56Zm12.41-30.86c.38.23.51.37.63.37,7.31.08,14.63.17,21.94.21,1.34,0,2.54-.52,3.48-1.5.91-.94,1.23-2.1.87-3.37-.39-1.34-1.5-1.58-2.7-1.66-2.15-.14-4.25.23-6.35.63-6.06,1.14-12.1,2.32-17.87,5.31Zm-46.68,30.6c3.44-2.87,4.16-6.58,4.05-10.55-.03-1.2-.55-1.75-1.91-.97-4.4,2.54-5.44,7.46-2.15,11.53Z"/>
        <path class="cls-1" d="m103.75,350.91c12.7.23,22.41,5.79,28.03,17.6,3.32,6.98,6.11,14.19,5.83,22.16-.2,5.92-1.81,11.41-4.78,16.55-1.94,3.37-4.92,5.1-8.5,6.08-1.68.46-3.2.31-4.39-1.08-1.14-1.34-.63-2.75,0-4.09,1.95-4.17,3.54-8.46,4.04-13.07,1.43-12.98-3.41-23.75-12.37-32.65-5.95-5.92-14.55-6.34-21.48-1.39-10.45,7.45-16.55,17.71-17.52,30.57-.77,10.16,4.03,18.09,11.3,24.73,5.53,5.05,12.07,8.54,18.57,12.11,6.83,3.76,13.75,7.36,19.8,12.36,7.18,5.93,11.16,13.49,10.08,22.88-1.43,12.44-12.28,19.83-25.1,17.71-4.19-.69-7.51-2.82-10.46-5.73-6.01-5.92-9.42-13.07-10.22-21.46-.25-2.63.32-5.02,2.24-6.95,1.36-1.37,3-1.86,4.82-1.22,1.69.59,1.74,2.13,1.82,3.62.51,9.73,4.41,17.64,12.49,23.36,4.96,3.51,8.58,2.65,11.28-2.8,2.72-5.5,2.44-10.92-.49-16.24-3.82-6.93-9.76-11.63-16.5-15.46-7.3-4.14-15-7.59-21.92-12.41-2.32-1.62-4.5-3.41-6.61-5.3-10.73-9.62-13.93-21.64-10.77-35.36,3.64-15.82,13.25-26.7,28.44-32.51,3.89-1.49,8.01-1.89,12.39-1.99Z"/>
        <path class="cls-1" d="m278.63,274.65c1.92,1.43,2.49,3.38,2.75,5.44,1.4,11.12-5.42,22.92-16.16,28.22-5.25,2.59-10.94,3.32-16.58,4.19-19.01,2.93-37.73,1.75-56.19-3.84-14.86-4.5-25.38-13.83-32.15-27.66-2.69-5.51-4.86-11.2-6.6-17.06-.31-1.04-.99-2.53.53-2.92,1.37-.36,1.77,1.14,2.11,2.23,2.32,7.4,5.62,14.35,9.81,20.87,7,10.88,16.84,17.57,29.5,20.41,14.04,3.15,28.19,4.55,42.54,3.59,5.56-.37,11.15-.86,16.55-2.27,11.23-2.94,19.36-9.46,22.81-20.94.73-2.42.95-4.94.51-7.48-.15-.9-.29-1.83.57-2.79Z"/>
        <path class="cls-1" d="m207.58,215.28c-7.11,1.36-12.29-3.05-16.35-9.51-.49-.77-1.03-1.51-1.5-2.3-1.04-1.74-.8-3.34.61-4.79,8-8.21,17.4-11.82,28.89-9.14,5.5,1.28,10.59,3.39,15.45,6.19,1.51.87,1.94,1.79.85,3.28-2.79,3.83-5.6,7.64-8.95,11.02-4.98,5.01-11.22,5.78-19.01,5.25Zm3.18-12.62c.84,0,1.68.08,2.51-.01,4.32-.47,8.39-1.61,11.62-4.74,1.69-1.64,1.51-2.32-.76-3.08-1.71-.57-3.47-.59-5.17-.08-5.18,1.54-10.37,1.65-15.56.12-2.1-.62-3.71.05-5.22,1.41-1.09.98-1.12,1.74.12,2.69,3.69,2.83,7.94,3.7,12.45,3.69Z"/>
        <path class="cls-1" d="m207.22,356.76c-1.68,2.4-3.04,4.41-4.48,6.38-1.17,1.61-2.48,2.97-4.78,2.05-2.05-.82-3.07-2.41-2.81-4.96.26-2.58.76-5.13,1.08-7.7.07-.55.21-1.2-.31-1.83-1.81,1.23-2.98,3-4.13,4.76-2.29,3.52-4.47,7.11-6.83,10.57-1.03,1.52-2.1,3.43-4.56,2.39-2.56-1.09-3.86-3.53-3.2-6.11,1.66-6.59,3.57-13.1,5.63-19.57.25-.79.6-1.57,1.06-2.26.75-1.12,1.86-1.54,3.2-1.18,1.34.36,2.03,1.27,2.21,2.61.14,1.01-.12,1.97-.28,2.95-.09.56-.42,1.31.27,1.64.62.29,1.19-.22,1.57-.69,1.26-1.56,2.7-2.91,4.35-4.03,2.26-1.53,3.67-1.26,5.15,1.06,1.19,1.87,1.98,3.92,2.59,6.29,1.55-1.36,2.93-2.64,4.38-3.83,3.7-3.02,7.06-1.69,7.82,3.07.27,1.67.12,3.35-.01,5.03-.09,1.14-.15,2.29-.15,3.43,0,4.69,1.3,5.43,5.52,3.24,1.63-.85,3-2.34,5.06-2.33.03,5.46-5.82,10.48-10.93,9.51-2.3-.44-3.72-1.96-4.81-3.89-1.09-1.93-1.77-4.03-2.6-6.6Z"/>
        <path class="cls-1" d="m398.56,371.62c-.07,5.16-.12,11.73-.58,18.28-.03.46-.02.92-.07,1.37-.09.85-.24,1.89-1.26,1.9-1.23.02-1.01-1.14-1-1.92.13-5.81-.09-11.61-.36-17.41-.45-9.61-.31-19.27-1.78-28.79-3.23-20.89-15.22-34.69-34.91-41.8-11.7-4.22-23.77-7.29-35.88-10.14-1.17-.27-2.9-.52-2.7-1.88.25-1.69,2.08-1.58,3.42-1.29,12.81,2.81,25.82,4.83,38.31,9,20.99,7.02,35.32,25.8,36.82,47.9.53,7.8.36,15.57-.02,24.76Z"/>
        <path class="cls-1" d="m239.63,11.57c2.35-.28,3.94.45,5.52,1.08,7.06,2.85,13.43,6.93,19.53,11.42,11.79,8.68,22.13,18.77,29.79,31.37,7.28,11.99,12.17,24.78,12.84,38.95.05,1.04,0,2.09-.19,3.2-7.06-17.14-15.29-33.59-26.61-48.33-11.35-14.77-24.99-27.1-40.87-37.7Z"/>
        <path class="cls-1" d="m171.4,316.94c.92,0,1.84-.04,2.75,0,1.86.11,2.69,1.32,2.89,2.99.19,1.59-.76,2.32-2.22,2.66-4.02.94-6.5,3.47-7.53,7.46-2.37,9.16-5.98,17.94-8.31,27.12-.49,1.92.19,2.52,1.78,2.8,2.25.39,4.53.68,6.76,1.14.84.18,1.97.42,2.05,1.52.09,1.18-.9,1.66-1.88,2-6.2,2.17-12.47,4.12-18.92,5.38-1.83.36-3.91.86-4.86-1.63-.77-2.02.08-4.12,2.55-5.18,2.81-1.21,4.13-3.26,4.98-6.08,2.69-8.91,5.57-17.76,8.37-26.64.73-2.32.58-2.52-1.91-2.67-.15,0-.31,0-.46,0-1.61-.06-3.32.07-3.95-1.94-.63-2.01.4-3.41,1.84-4.55,4.03-3.18,8.84-3.94,13.76-4.27.76-.05,1.53,0,2.29,0,0-.03,0-.07,0-.1Z"/>
        <path class="cls-1" d="m268.07,357.56c-.14,5.01-4.36,9.67-8.93,10.13-1.55.15-2.89-.41-3.98-1.43-1.51-1.4-2.97-2.86-4.33-4.4-.75-.85-1.34-1-2.31-.38-1.28.83-2.64,1.52-3.98,2.26-1.14.62-2.31,1.16-3.58,1.5-4.7,1.24-8.42-2.08-7.38-6.81,1.54-7.07,5.36-12.8,11.12-17.09,4.51-3.36,9.51-2.74,14.4-.74,1.9.78,2.35,2.32,1.59,4.65-1.13,3.48-2.35,6.93-3.51,10.41-.24.72-.42,1.47-.59,2.21-.29,1.29-.04,2.45,1.07,3.27,1.04.78,2.03.26,2.99-.23,2.36-1.21,4.59-2.7,7.42-3.34Zm-18.13-9.47c-4.74,2.09-7.35,5.61-6.85,9.01,2.94-2.39,5.45-5.01,6.85-9.01Z"/>
        <path class="cls-1" d="m169.67,47.35c1.85,1.84,2.59,3.76,3.39,5.65,3.75,8.81,7.85,17.41,14.21,24.72,4.89,5.62,10.68,9.95,17.5,13.02,8.78,3.94,17.85,7.19,26.47,11.48,3.17,1.58,5.94,3.73,8.75,5.85.68.52,1.51,1.18,1.03,2.06-.6,1.09-1.59.45-2.41.08-10.62-4.7-21.55-8.61-32.43-12.65-13.99-5.19-23.59-15.13-30.15-28.28-2.7-5.42-5.04-10.96-6.15-16.95-.28-1.5-.39-3-.21-4.97Z"/>
        <path class="cls-1" d="m213.41,30.39c-3.72-4.4-8.53-7.24-13.82-9.32-3.56-1.4-7.25-2.36-11.01-3.04-1.05-.19-2.63-.17-2.58-1.33.07-1.41,1.67-1.51,2.91-1.53,8.3-.15,15.99,1.89,23.11,6.2,6.7,4.05,11.82,9.86,17.22,15.34,4.4,4.46,8.67,9.03,13,13.55.26.28.55.53.8.82.45.53.98,1.16.45,1.82-.63.77-1.39.33-2.02-.13-2.59-1.89-5.28-3.66-7.72-5.72-5.31-4.48-10.49-9.1-15.73-13.66-.4-.35-.85-.63-1.38-.86,1.18,2.04,3.04,3.59,4.22,5.84-3.6-.09-5.73-3.19-9.18-4.09,1.67,5.35,7.32,6.91,9.7,11.6-4.23-.75-7.32-2.92-10.13-5.51-3.17-2.93-5.9-6.2-6.83-10.59-.24-1.13-.54-2.37.57-3.16,1.06-.75,2.04.08,2.95.59,1.85,1.03,3.66,2.13,5.48,3.2Z"/>
        <path class="cls-1" d="m235.82,82.02c-11.83-3.8-21.46-11.26-31.33-19.1.47,3.52,2.1,6.05,3.85,8.52,3.16,4.44,7.6,7.47,11.86,10.7,7.24,5.49,14.47,11,21.69,16.51.54.41,1.06.88,1.5,1.4.41.48,1.18,1.02.53,1.71-.51.55-1.31.4-1.91,0-1.84-1.23-3.66-2.49-5.47-3.76-9.3-6.56-18.93-12.65-27.86-19.71-8.55-6.76-12.59-16.09-14.14-26.64-.24-1.65.33-3.14,1.79-4.53,11.54,13.49,24.52,25.31,39.49,34.92Z"/>
        <path class="cls-1" d="m209.12,10.44c27.71.67,64.09,29.08,70.62,57.43-17.14-27.02-40.73-46.06-70.62-57.43Z"/>
        <path class="cls-1" d="m170.43,22.63c2.18-1.78,4.71-2.18,7.32-1.83,9.59,1.29,17.92,4.95,23.64,13.2,4.42,6.38,11.02,9.73,17.76,12.86,6.92,3.21,13.89,6.31,20.85,9.44,1.13.51,2.25.95,2.49,2.59-5.33-.64-10.44-1.8-15.47-3.32-8.17-2.46-15.81-6.03-22.85-10.87-2.29-1.57-4.36-3.4-5.79-5.79-4.58-7.67-11.64-11.63-20.06-13.6-1.7-.4-3.43-.7-5.15-1.03-1.06-.2-2.09-.44-2.74-1.65Z"/>
        <path class="cls-1" d="m115.74,98.74c-1.4.83-2.46.31-3.4-.31-1.66-1.09-2.67-.64-3.71.96-2.54,3.89-3.91,8.26-5.47,12.56-.33.9-.41,1.92-1.22,2.75-1.35-1.44-1.96-3.12-1.98-5-.04-4.99.86-9.77,3.87-13.88,1.79-2.44,2.14-4.9,1.14-7.75-1.6-4.56-1.36-9.18.15-13.72,2.91-8.73,7.37-16.58,13.62-23.38.57-.62,1.14-1.27,1.81-1.74.77-.54,1.76-1.4,2.63-.62.74.67.17,1.7-.25,2.54-2.96,5.86-5.92,11.72-8.87,17.59-1.2,2.39-2.5,4.74-3.52,7.2-2.45,5.91-1.99,11.62,1.55,17.03,1.24,1.89,2.42,3.82,3.65,5.76Z"/>
        <path class="cls-1" d="m62.52,349.88c-.69-4.68.17-9.04.74-13.42,2.25-17.33,4.57-34.65,7.33-51.9,1.55-9.66,6.24-17.93,12.72-25.2.79-.89,1.64-1.79,3.02-2.23.7,2.21-.38,3.9-1.44,5.51-4.75,7.23-7.82,15.16-9.91,23.51-2.23,8.9-3.43,17.98-4.82,27.03-1.7,11.09-3.42,22.17-5.15,33.25-.23,1.45-.59,2.84-2.49,3.45Z"/>
        <path class="cls-1" d="m343.14,230.4c-.94,2.17-2.7,2.45-4.57,2.5-9.65.22-17.85-3.28-25.03-9.57-10.59-9.28-15.07-21.55-17.27-34.95-.22-1.32-1.13-2.81.24-4.11.89.15.88.97,1.15,1.53,3.67,7.62,6.69,15.55,11.12,22.81,7.24,11.86,17.65,18.94,31.35,21.19.96.16,1.91.37,3,.59Z"/>
        <path class="cls-1" d="m309.14,282.53c-.08-14.01.84-27.57-2.1-40.91-.42-1.93-1.02-3.82-1.67-6.24-5.54,7.12-5.48,15.17-5.85,23.27-1.69-.62-1.95-2.03-2.31-3.24-1.23-4.06-.88-8.18-.05-12.25,1.11-5.45,2.91-10.62,6.76-14.81,2.08-2.26,2.27-2.23,3.71.46,2.85,5.34,4.04,11.17,4.91,17.08,1.54,10.44,1.93,20.84-1.11,31.12-.45,1.54-1.01,3.04-1.54,4.55-.07.19-.26.34-.76.96Z"/>
        <path class="cls-1" d="m133.72,46.96c-3.55,9.53-7.38,18.31-5.75,28.27,1.15-2.7,2.31-5.4,3.45-8.11,1.41-3.33,3.12-6.47,5.81-8.96.42-.38.82-1.13,1.5-.63.7.52.07,1.12-.18,1.62-2.89,5.9-5.85,11.78-7.11,18.3-.82,4.27-1.52,8.56-2.29,13-1.76-.69-2.82-2.16-3.89-3.55-3.86-5.02-4.15-10.89-3.7-16.83.68-8.83,4.29-16.3,10.93-22.23.22-.2.48-.35,1.21-.87Z"/>
        <path class="cls-1" d="m131.68,231.85c-2.45,23.59,4.76,42.8,25.06,56.34-13.11-2.28-21.34-10.26-25.88-22.06-4.39-11.4-5.77-22.98.82-34.29Z"/>
        <path class="cls-1" d="m313.83,117.72c2.86,1.01,4.32,2.84,5.71,4.7,2.99,4.01,5.01,8.54,6.73,13.21,3.51,9.47,5.39,19.25,5.17,29.35-.12,5.43-1.39,10.65-4,15.63.02-21.82-3.89-42.76-13.61-62.89Z"/>
        <path class="cls-1" d="m286.51,252.65c-1.52-.46-2.08-1.38-2.35-2.57-1.16-5.18-1.25-10.28,1.03-15.24,2.99-6.53,5.78-13.12,7.02-20.27.77-4.47.98-8.94.84-13.46-.05-1.54-.15-3.68,1.54-3.83,1.55-.14,2.15,1.98,2.31,3.49,1.09,10.03,1.46,20-3.44,29.32-3.24,6.15-4.99,12.76-6.33,19.52-.19.97-.4,1.93-.63,3.04Z"/>
        <path class="cls-1" d="m156.2,240.38c-1.15-13.52-.96-26.79-6.18-39.84-1.36,6.38-2.59,12.18-3.86,18.16-2.59-1.37-2.77-3.7-2.8-6.07-.07-4.45.66-8.83,1.24-13.22.22-1.67.3-3.35.57-5.01.36-2.26,1.54-2.82,3.54-1.66,2.5,1.45,3.95,3.74,4.94,6.39,2.53,6.77,3.97,13.77,4.61,20.95.45,5.11.49,10.22.29,15.34-.07,1.87-.92,3.25-2.34,4.95Z"/>
        <path class="cls-1" d="m328.03,369.81c-2.35-4.79-4.18-9.63-5.92-14.5-5.61-15.64-9.47-31.73-12.35-48.07-.23-1.29-.62-3.03.89-3.39,1.78-.42,1.98,1.47,2.32,2.75,5.31,19.83,10.61,39.67,15.93,59.5.35,1.29.74,2.53-.87,3.71Z"/>
        <path class="cls-1" d="m277.26,93.03c-1.04.09-1.77-.54-2.34-1.22-4.51-5.35-10.66-7.79-17.13-9.56-9.61-2.63-18.98-5.82-27.61-10.9-4.16-2.45-8.05-5.27-11.75-8.36-.79-.66-2.24-1.58-1.37-2.7.8-1.03,1.94.15,2.79.71,12.25,8.04,25.73,13.3,39.66,17.55,6.63,2.02,12.62,5.06,16.77,10.91.76,1.07,1.54,2.13.97,3.58Z"/>
        <path class="cls-1" d="m231.48,98.35c-2.94-.14-5.23-1.61-7.58-2.77-6.29-3.12-12.45-6.51-18.77-9.58-10.44-5.06-17.06-13.34-20.9-24.09-.3-.83-.97-1.96.13-2.41,1.19-.49,1.62.78,2.03,1.67,4.83,10.26,12.33,17.92,22.48,22.96,6.78,3.37,13.33,7.13,19.81,11.03,1.16.69,2.47,1.29,2.79,3.2Z"/>
        <path class="cls-1" d="m129.78,284.58c1.49,3.08,1.27,5.84.88,8.49-1.8,12.22-5.73,23.67-12.79,33.92-.91,1.32-1.99,2.49-3.95,3.82,5.34-15.63,9.99-30.83,15.86-46.23Z"/>
        <path class="cls-1" d="m286.46,96.27c-2.77-4.3-5.32-8.46-8.32-12.3-3.75-4.79-8.05-8.97-13.12-12.35-3.5-2.34-6.61-5.1-8.75-8.94,1.53-.57,2.83-.15,3.93.37,12.31,5.81,21.44,14.69,26.2,27.65.62,1.68.89,3.52.07,5.57Z"/>
        <path class="cls-1" d="m312.68,408.48c-.04-3.42,3.35-5.56,6.15-3.65,1.99,1.36,3.54,1.76,5.81.6,2.53-1.3,5.63,1.3,5.59,4.41-.02,1.92-.88,3.52-2.11,4.94-1.72,1.98-3.92,3.38-6,4.92-.88.64-1.78.64-2.44-.21-2.2-2.83-4.36-5.69-6.47-8.58-.5-.68-.54-1.58-.53-2.43Z"/>
        <path class="cls-1" d="m217.77,386c-.11-3.05,1.12-4.26,2.95-5.03,1.91-.81,3.64-.32,4.57,1.38,1.19,2.19,2.7,2.66,5.02,2.17,1.87-.39,3.48.43,4.24,2.32.76,1.9.7,3.76-.79,5.32-2.53,2.66-5.81,3.82-9.3,4.5-1.06.21-2.05-.14-2.63-1.03-2.09-3.22-3.46-6.74-4.06-9.64Z"/>
        <path class="cls-1" d="m226.2,111.35c-.6,1.54-1.6.85-2.51.32-4.75-2.75-9.93-4.27-15.28-5.3-5.18-1-10.3-2.18-15.24-4.08-4.56-1.76-8.99-3.83-13.33-6.06-.74-.38-1.43-.88-2.07-1.42-.58-.49-1.24-1.18-.7-1.95.51-.73,1.25-.15,1.84.14,5.84,2.92,12.07,4.7,18.38,6.24,5.56,1.35,11.1,2.79,16.61,4.35,3.99,1.13,7.73,2.86,10.89,5.65.63.56,1.25,1.13,1.42,2.12Z"/>
        <path class="cls-1" d="m312.39,173.19c-1.9-7.02-3.72-13.79-5.55-20.55-1.19-4.42-2.39-8.83-3.55-13.26-.16-.61-.62-1.32.26-1.81.87-.49,1.4,0,1.96.59,4.77,4.86,7.32,10.84,8.54,17.41.85,4.57,1.59,9.18.83,13.86-.24,1.48-.76,2.77-2.49,3.76Z"/>
        <path class="cls-1" d="m166.19,9.52c11.02-10.82,43.72-13.24,58.28-2.98-19.52-4.11-38.83-3.86-58.28,2.98Z"/>
        <path class="cls-1" d="m254.24,91.24c11.96,5.17,23.41,10.86,34.41,17.51-2.94.61-5.59-.51-8.31-.95-7.12-1.15-14.06-2.86-19.81-7.6-2.01-1.65-3.73-3.6-5.34-5.63-.65-.82-1.25-1.73-.95-3.32Z"/>
        <path class="cls-1" d="m278.35,260.88c-3.43-9.7-7.45-18.66-7.36-28.7.04-4.5,1.02-8.78,2.8-12.9.21-.49.45-.97.75-1.41.35-.51.83-1.05,1.48-.9.77.17.61.99.65,1.54.19,2.94-.8,5.73-1.08,8.62-.68,6.97.42,13.7,2.49,20.33.66,2.11,1.42,4.18,1.81,6.39.42,2.39-.06,4.52-1.53,7.03Z"/>
        <path class="cls-1" d="m317.85,235.74c4.12,12.34,2.65,25.81,8.35,38.21-2.6-.72-4.37-1.96-5.51-3.89-6.5-10.96-6.53-22.49-2.84-34.32Z"/>
        <path class="cls-1" d="m151.74,96.18c-2.09.53-3.61-.58-5.19-1.46q-3.05-1.72-4.84,1.27c-.99,1.65-1.48,1.66-2.46.02-2.44-4.06-1.45-8.07,2.65-10.44,1.19-.68,1.71-1.67,1.99-2.9.67-2.98,1.32-5.96,1.99-8.93.18-.82.33-1.67.97-2.29.57-.55,1.33-.98,2.07-.61.72.35.21,1.12.09,1.65-1.69,7.71-.89,15.16,2.3,22.36.18.41.28.85.43,1.33Z"/>
        <path class="cls-1" d="m268.22,218.44c-1.77,15.76-6.89,30.63-6.6,46.84-1.87-2.37-2.22-4.65-2.49-6.93-.94-7.85.22-15.54,1.98-23.16.98-4.24,2.37-8.37,4.02-12.4.63-1.55,1.37-3.04,3.1-4.35Z"/>
        <path class="cls-1" d="m121.85,245.25c-4.92-8.93-1.69-29.68,5.45-34.17-.21,11.74-2.1,22.8-5.45,34.17Z"/>
        <path class="cls-1" d="m316.13,177.12c4.9,5.83,7.24,21.03,3.97,26.6-2.34-3.69-1.66-7.95-3.06-11.82-1.04,1.14-1.52,2.49-2.18,3.73-.24.45-.38,1.16-1.01,1.11-.63-.05-1.04-.59-1.22-1.23-.12-.44-.3-.88-.33-1.33-.28-5.97.51-11.7,3.82-17.06Z"/>
        <path class="cls-1" d="m136.01,236.07c-.02-3.07.34-6.08,1.49-8.96.35-.88.87-1.82,1.88-1.72,1.03.09.95,1.22,1.09,2.01,1.4,7.87,2.79,15.74,4.18,23.61.12.66.44,1.45-.25,1.91-.68.46-1.27-.19-1.82-.52-1.89-1.14-3.09-2.9-4.07-4.82-1.66-3.26-2.49-7.12-2.5-11.5Z"/>
        <path class="cls-1" d="m250,43.28c-7.78-5.4-15.17-10.53-22.56-15.66-1.19-.83-2.4-1.62-3.57-2.48-.38-.28-1.1-.46-.78-1.18.22-.5.68-.9,1.23-.92.75-.02,1.56-.02,2.25.23,7.93,2.86,15.17,6.8,20.5,13.58,1.37,1.74,2.43,3.66,2.93,6.43Z"/>
        <path class="cls-1" d="m155.96,40.87c2.56,6.41,4.24,12.65,7.34,18.3,3.08,5.61,6.57,10.94,10.34,16.26-8.42-.67-22.45-27.86-17.68-34.56Z"/>
        <path class="cls-1" d="m169.39,35.96c1.86-1.11,3.71-1.05,5.51-1.19,1.83-.14,3.64-.32,5.25-1.36.99-.65,1-1.3-.03-1.82-1.21-.62-2.5-1.1-3.73-1.68-.54-.26-1.2-.58-1-1.32.17-.6.69-.97,1.36-1.06,4.85-.66,9.09.52,12.42,4.23,1.39,1.55,1.2,2.8-.63,3.96-4.53,2.85-9.49,2.97-14.57,2.09-1.57-.27-3.11-.71-4.59-1.84Z"/>
        <path class="cls-1" d="m188.91,320.9c-1.44,3.97-1.91,8.96-6.01,12.22-.81.65-1.86,1.49-2.86.97-1.17-.6-1.49-2.01-1.18-3.24,1.33-5.24,2.37-10.59,5.22-15.33.79-1.31,1.42-1.53,2.5-.3,1.31,1.49,2.21,3.1,2.34,5.67Z"/>
        <path class="cls-1" d="m129.54,36.54c-.82-1.38-.72-2.49-.39-3.61,1.86-6.33,10.16-12.68,16.67-12.75.46,0,.91,0,1.37.02.52,0,.87.29,1.05.74.23.55-.2.83-.55,1.11-5.99,4.79-11.99,9.58-18.14,14.5Z"/>
        <path class="cls-1" d="m284.47,224.87c-.61-4.77-.56-9.4-.24-14.05.3-4.26.5-8.54.78-12.8.06-.94-.26-2.36.95-2.54,1.35-.21,1.48,1.33,1.82,2.25,1.68,4.64,1.52,9.47,1.06,14.26-.38,4.04-1.19,8-3.16,11.63-.24.45-.35,1.02-1.21,1.26Z"/>
        <path class="cls-1" d="m284.7,288.93c3.66-6.44,5.66-13.26,10.28-19.05,2.91,4.45,1.75,8.33-.1,12.14-1.96,4.04-5.01,6.62-10.18,6.91Z"/>
        <path class="cls-1" d="m90.09,272.92c3.53-1.74,22.11-4.88,26.16-4.5-3.17,4.93-17.64,7.51-26.16,4.5Z"/>
        <path class="cls-1" d="m156.22,282.59c-5.67-6.28-11.52-12.11-16.73-18.66,5.97-1.04,17.8,12.25,16.73,18.66Z"/>
        <path class="cls-1" d="m278.69,195.18c-.44,5.48-2.76,9.12-6.59,11.89-.68.5-1.56,1.06-2.26.33-.57-.6.29-1.22.6-1.77,2.07-3.74,4.79-6.97,8.24-10.45Z"/>
        <path class="cls-1" d="m203.57,176.28c-.78-.2-1.75-.39-2.68-.7-.53-.18-1.35-.15-1.41-.93-.06-.83.45-1.52,1.14-1.85,1.56-.74,3.12-.68,4.42.62.6.6,1.18,1.35.78,2.23-.39.86-1.33.48-2.25.63Z"/>
        <path class="cls-1" d="m218.29,175.64c-1.1.02-2.12.21-2.74-.6-.54-.7.21-1.25.57-1.78.64-.94,1.53-1.54,2.71-1.18,1.23.38,3.03,1.01,2.88,2.15-.23,1.8-2.29,1.13-3.42,1.41Z"/>
        <path class="cls-1" d="m253.68,121.47c4.06-.06,8.1.21,12.08,1.01,6.5,1.3,10.22,5.76,10.29,12.39.04,3.98-.26,7.94-.97,11.86-1.8,9.9-8.42,16.38-18.88,18.33-6.64,1.23-13.23.91-19.69-1.2-13.27-4.31-20.55-18.02-16.66-31.41,1.07-3.67,3.47-6.08,7.17-7.03,8.75-2.25,17.58-4,26.67-3.94Z"/>
      </g>
    </g>
  </g>
</svg>